<mxfile host="app.diagrams.net" modified="2021-06-14T16:46:00.280Z" agent="5.0 (Windows)" etag="0bxqRE3y_Uoi9Xb1aVAU" version="14.4.2" type="github">
  <diagram id="QNdmbX97oADwMdpqi19U" name="Page-1">
    <mxGraphModel dx="2031" dy="1074" grid="0" gridSize="10" guides="1" tooltips="1" connect="1" arrows="1" fold="1" page="1" pageScale="1" pageWidth="1100" pageHeight="850" math="0" shadow="0">
      <root>
        <mxCell id="0" />
        <mxCell id="1" parent="0" />
        <mxCell id="alAOk1aA2B2bPVMMPNH8-48" value="" style="group" vertex="1" connectable="0" parent="1">
          <mxGeometry x="508" y="170" width="195" height="70" as="geometry" />
        </mxCell>
        <mxCell id="alAOk1aA2B2bPVMMPNH8-3" value="" style="rounded=0;whiteSpace=wrap;html=1;strokeWidth=3;" vertex="1" parent="alAOk1aA2B2bPVMMPNH8-48">
          <mxGeometry width="195" height="70" as="geometry" />
        </mxCell>
        <mxCell id="alAOk1aA2B2bPVMMPNH8-15" value="" style="group" vertex="1" connectable="0" parent="alAOk1aA2B2bPVMMPNH8-48">
          <mxGeometry x="6.5" y="10" width="25" height="50" as="geometry" />
        </mxCell>
        <mxCell id="alAOk1aA2B2bPVMMPNH8-4" value="" style="rounded=0;whiteSpace=wrap;html=1;strokeWidth=3;rotation=-90;" vertex="1" parent="alAOk1aA2B2bPVMMPNH8-15">
          <mxGeometry x="-12.5" y="12.5" width="50" height="25" as="geometry" />
        </mxCell>
        <mxCell id="alAOk1aA2B2bPVMMPNH8-10" value="" style="ellipse;whiteSpace=wrap;html=1;aspect=fixed;strokeWidth=3;" vertex="1" parent="alAOk1aA2B2bPVMMPNH8-15">
          <mxGeometry x="5" y="6.5" width="15" height="15" as="geometry" />
        </mxCell>
        <mxCell id="alAOk1aA2B2bPVMMPNH8-11" value="" style="ellipse;whiteSpace=wrap;html=1;aspect=fixed;strokeWidth=3;" vertex="1" parent="alAOk1aA2B2bPVMMPNH8-15">
          <mxGeometry x="5" y="27.5" width="15" height="15" as="geometry" />
        </mxCell>
        <mxCell id="alAOk1aA2B2bPVMMPNH8-20" value="" style="group" vertex="1" connectable="0" parent="alAOk1aA2B2bPVMMPNH8-48">
          <mxGeometry x="40" y="10" width="25" height="50" as="geometry" />
        </mxCell>
        <mxCell id="alAOk1aA2B2bPVMMPNH8-21" value="" style="rounded=0;whiteSpace=wrap;html=1;strokeWidth=3;rotation=-90;" vertex="1" parent="alAOk1aA2B2bPVMMPNH8-20">
          <mxGeometry x="-12.5" y="12.5" width="50" height="25" as="geometry" />
        </mxCell>
        <mxCell id="alAOk1aA2B2bPVMMPNH8-22" value="" style="ellipse;whiteSpace=wrap;html=1;aspect=fixed;strokeWidth=3;" vertex="1" parent="alAOk1aA2B2bPVMMPNH8-20">
          <mxGeometry x="5" y="6.5" width="15" height="15" as="geometry" />
        </mxCell>
        <mxCell id="alAOk1aA2B2bPVMMPNH8-23" value="" style="ellipse;whiteSpace=wrap;html=1;aspect=fixed;strokeWidth=3;" vertex="1" parent="alAOk1aA2B2bPVMMPNH8-20">
          <mxGeometry x="5" y="27.5" width="15" height="15" as="geometry" />
        </mxCell>
        <mxCell id="alAOk1aA2B2bPVMMPNH8-24" value="" style="group" vertex="1" connectable="0" parent="alAOk1aA2B2bPVMMPNH8-48">
          <mxGeometry x="72" y="10" width="25" height="50" as="geometry" />
        </mxCell>
        <mxCell id="alAOk1aA2B2bPVMMPNH8-25" value="" style="rounded=0;whiteSpace=wrap;html=1;strokeWidth=3;rotation=-90;" vertex="1" parent="alAOk1aA2B2bPVMMPNH8-24">
          <mxGeometry x="-12.5" y="12.5" width="50" height="25" as="geometry" />
        </mxCell>
        <mxCell id="alAOk1aA2B2bPVMMPNH8-26" value="" style="ellipse;whiteSpace=wrap;html=1;aspect=fixed;strokeWidth=3;" vertex="1" parent="alAOk1aA2B2bPVMMPNH8-24">
          <mxGeometry x="5" y="6.5" width="15" height="15" as="geometry" />
        </mxCell>
        <mxCell id="alAOk1aA2B2bPVMMPNH8-27" value="" style="ellipse;whiteSpace=wrap;html=1;aspect=fixed;strokeWidth=3;" vertex="1" parent="alAOk1aA2B2bPVMMPNH8-24">
          <mxGeometry x="5" y="27.5" width="15" height="15" as="geometry" />
        </mxCell>
        <mxCell id="alAOk1aA2B2bPVMMPNH8-28" value="" style="group" vertex="1" connectable="0" parent="alAOk1aA2B2bPVMMPNH8-48">
          <mxGeometry x="102" y="10" width="25" height="50" as="geometry" />
        </mxCell>
        <mxCell id="alAOk1aA2B2bPVMMPNH8-29" value="" style="rounded=0;whiteSpace=wrap;html=1;strokeWidth=3;rotation=-90;" vertex="1" parent="alAOk1aA2B2bPVMMPNH8-28">
          <mxGeometry x="-12.5" y="12.5" width="50" height="25" as="geometry" />
        </mxCell>
        <mxCell id="alAOk1aA2B2bPVMMPNH8-30" value="" style="ellipse;whiteSpace=wrap;html=1;aspect=fixed;strokeWidth=3;" vertex="1" parent="alAOk1aA2B2bPVMMPNH8-28">
          <mxGeometry x="5" y="6.5" width="15" height="15" as="geometry" />
        </mxCell>
        <mxCell id="alAOk1aA2B2bPVMMPNH8-31" value="" style="ellipse;whiteSpace=wrap;html=1;aspect=fixed;strokeWidth=3;" vertex="1" parent="alAOk1aA2B2bPVMMPNH8-28">
          <mxGeometry x="5" y="27.5" width="15" height="15" as="geometry" />
        </mxCell>
        <mxCell id="alAOk1aA2B2bPVMMPNH8-38" value="" style="group" vertex="1" connectable="0" parent="alAOk1aA2B2bPVMMPNH8-48">
          <mxGeometry x="132" y="10" width="25" height="50" as="geometry" />
        </mxCell>
        <mxCell id="alAOk1aA2B2bPVMMPNH8-39" value="" style="rounded=0;whiteSpace=wrap;html=1;strokeWidth=3;rotation=-90;" vertex="1" parent="alAOk1aA2B2bPVMMPNH8-38">
          <mxGeometry x="-12.5" y="12.5" width="50" height="25" as="geometry" />
        </mxCell>
        <mxCell id="alAOk1aA2B2bPVMMPNH8-40" value="" style="ellipse;whiteSpace=wrap;html=1;aspect=fixed;strokeWidth=3;" vertex="1" parent="alAOk1aA2B2bPVMMPNH8-38">
          <mxGeometry x="5" y="6.5" width="15" height="15" as="geometry" />
        </mxCell>
        <mxCell id="alAOk1aA2B2bPVMMPNH8-41" value="" style="ellipse;whiteSpace=wrap;html=1;aspect=fixed;strokeWidth=3;" vertex="1" parent="alAOk1aA2B2bPVMMPNH8-38">
          <mxGeometry x="5" y="27.5" width="15" height="15" as="geometry" />
        </mxCell>
        <mxCell id="alAOk1aA2B2bPVMMPNH8-42" value="" style="group" vertex="1" connectable="0" parent="alAOk1aA2B2bPVMMPNH8-48">
          <mxGeometry x="162" y="10" width="25" height="50" as="geometry" />
        </mxCell>
        <mxCell id="alAOk1aA2B2bPVMMPNH8-43" value="" style="rounded=0;whiteSpace=wrap;html=1;strokeWidth=3;rotation=-90;" vertex="1" parent="alAOk1aA2B2bPVMMPNH8-42">
          <mxGeometry x="-12.5" y="12.5" width="50" height="25" as="geometry" />
        </mxCell>
        <mxCell id="alAOk1aA2B2bPVMMPNH8-44" value="" style="ellipse;whiteSpace=wrap;html=1;aspect=fixed;strokeWidth=3;" vertex="1" parent="alAOk1aA2B2bPVMMPNH8-42">
          <mxGeometry x="5" y="6.5" width="15" height="15" as="geometry" />
        </mxCell>
        <mxCell id="alAOk1aA2B2bPVMMPNH8-45" value="" style="ellipse;whiteSpace=wrap;html=1;aspect=fixed;strokeWidth=3;" vertex="1" parent="alAOk1aA2B2bPVMMPNH8-42">
          <mxGeometry x="5" y="27.5" width="15" height="15" as="geometry" />
        </mxCell>
        <mxCell id="alAOk1aA2B2bPVMMPNH8-172" style="edgeStyle=orthogonalEdgeStyle;curved=1;rounded=0;orthogonalLoop=1;jettySize=auto;html=1;endArrow=none;endFill=0;strokeWidth=4;fontSize=6;fillColor=#ffe6cc;strokeColor=#d79b00;" edge="1" parent="alAOk1aA2B2bPVMMPNH8-48" source="alAOk1aA2B2bPVMMPNH8-40" target="alAOk1aA2B2bPVMMPNH8-26">
          <mxGeometry relative="1" as="geometry">
            <mxPoint x="99.22818791946304" y="-49.83221476510067" as="targetPoint" />
            <Array as="points">
              <mxPoint x="145" y="-23" />
              <mxPoint x="85" y="-23" />
            </Array>
          </mxGeometry>
        </mxCell>
        <mxCell id="alAOk1aA2B2bPVMMPNH8-49" value="" style="group" vertex="1" connectable="0" parent="1">
          <mxGeometry x="508" y="258" width="195" height="70" as="geometry" />
        </mxCell>
        <mxCell id="alAOk1aA2B2bPVMMPNH8-50" value="" style="rounded=0;whiteSpace=wrap;html=1;strokeWidth=3;" vertex="1" parent="alAOk1aA2B2bPVMMPNH8-49">
          <mxGeometry width="195" height="70" as="geometry" />
        </mxCell>
        <mxCell id="alAOk1aA2B2bPVMMPNH8-51" value="" style="group" vertex="1" connectable="0" parent="alAOk1aA2B2bPVMMPNH8-49">
          <mxGeometry x="6.5" y="10" width="25" height="50" as="geometry" />
        </mxCell>
        <mxCell id="alAOk1aA2B2bPVMMPNH8-52" value="" style="rounded=0;whiteSpace=wrap;html=1;strokeWidth=3;rotation=-90;" vertex="1" parent="alAOk1aA2B2bPVMMPNH8-51">
          <mxGeometry x="-12.5" y="12.5" width="50" height="25" as="geometry" />
        </mxCell>
        <mxCell id="alAOk1aA2B2bPVMMPNH8-53" value="" style="ellipse;whiteSpace=wrap;html=1;aspect=fixed;strokeWidth=3;" vertex="1" parent="alAOk1aA2B2bPVMMPNH8-51">
          <mxGeometry x="5" y="6.5" width="15" height="15" as="geometry" />
        </mxCell>
        <mxCell id="alAOk1aA2B2bPVMMPNH8-54" value="" style="ellipse;whiteSpace=wrap;html=1;aspect=fixed;strokeWidth=3;" vertex="1" parent="alAOk1aA2B2bPVMMPNH8-51">
          <mxGeometry x="5" y="27.5" width="15" height="15" as="geometry" />
        </mxCell>
        <mxCell id="alAOk1aA2B2bPVMMPNH8-55" value="" style="group" vertex="1" connectable="0" parent="alAOk1aA2B2bPVMMPNH8-49">
          <mxGeometry x="40" y="10" width="25" height="50" as="geometry" />
        </mxCell>
        <mxCell id="alAOk1aA2B2bPVMMPNH8-56" value="" style="rounded=0;whiteSpace=wrap;html=1;strokeWidth=3;rotation=-90;" vertex="1" parent="alAOk1aA2B2bPVMMPNH8-55">
          <mxGeometry x="-12.5" y="12.5" width="50" height="25" as="geometry" />
        </mxCell>
        <mxCell id="alAOk1aA2B2bPVMMPNH8-57" value="" style="ellipse;whiteSpace=wrap;html=1;aspect=fixed;strokeWidth=3;" vertex="1" parent="alAOk1aA2B2bPVMMPNH8-55">
          <mxGeometry x="5" y="6.5" width="15" height="15" as="geometry" />
        </mxCell>
        <mxCell id="alAOk1aA2B2bPVMMPNH8-58" value="" style="ellipse;whiteSpace=wrap;html=1;aspect=fixed;strokeWidth=3;" vertex="1" parent="alAOk1aA2B2bPVMMPNH8-55">
          <mxGeometry x="5" y="27.5" width="15" height="15" as="geometry" />
        </mxCell>
        <mxCell id="alAOk1aA2B2bPVMMPNH8-59" value="" style="group" vertex="1" connectable="0" parent="alAOk1aA2B2bPVMMPNH8-49">
          <mxGeometry x="72" y="10" width="25" height="50" as="geometry" />
        </mxCell>
        <mxCell id="alAOk1aA2B2bPVMMPNH8-60" value="" style="rounded=0;whiteSpace=wrap;html=1;strokeWidth=3;rotation=-90;" vertex="1" parent="alAOk1aA2B2bPVMMPNH8-59">
          <mxGeometry x="-12.5" y="12.5" width="50" height="25" as="geometry" />
        </mxCell>
        <mxCell id="alAOk1aA2B2bPVMMPNH8-61" value="" style="ellipse;whiteSpace=wrap;html=1;aspect=fixed;strokeWidth=3;" vertex="1" parent="alAOk1aA2B2bPVMMPNH8-59">
          <mxGeometry x="5" y="6.5" width="15" height="15" as="geometry" />
        </mxCell>
        <mxCell id="alAOk1aA2B2bPVMMPNH8-62" value="" style="ellipse;whiteSpace=wrap;html=1;aspect=fixed;strokeWidth=3;" vertex="1" parent="alAOk1aA2B2bPVMMPNH8-59">
          <mxGeometry x="5" y="27.5" width="15" height="15" as="geometry" />
        </mxCell>
        <mxCell id="alAOk1aA2B2bPVMMPNH8-63" value="" style="group" vertex="1" connectable="0" parent="alAOk1aA2B2bPVMMPNH8-49">
          <mxGeometry x="102" y="10" width="25" height="50" as="geometry" />
        </mxCell>
        <mxCell id="alAOk1aA2B2bPVMMPNH8-64" value="" style="rounded=0;whiteSpace=wrap;html=1;strokeWidth=3;rotation=-90;" vertex="1" parent="alAOk1aA2B2bPVMMPNH8-63">
          <mxGeometry x="-12.5" y="12.5" width="50" height="25" as="geometry" />
        </mxCell>
        <mxCell id="alAOk1aA2B2bPVMMPNH8-65" value="" style="ellipse;whiteSpace=wrap;html=1;aspect=fixed;strokeWidth=3;" vertex="1" parent="alAOk1aA2B2bPVMMPNH8-63">
          <mxGeometry x="5" y="6.5" width="15" height="15" as="geometry" />
        </mxCell>
        <mxCell id="alAOk1aA2B2bPVMMPNH8-66" value="" style="ellipse;whiteSpace=wrap;html=1;aspect=fixed;strokeWidth=3;" vertex="1" parent="alAOk1aA2B2bPVMMPNH8-63">
          <mxGeometry x="5" y="27.5" width="15" height="15" as="geometry" />
        </mxCell>
        <mxCell id="alAOk1aA2B2bPVMMPNH8-67" value="" style="group" vertex="1" connectable="0" parent="alAOk1aA2B2bPVMMPNH8-49">
          <mxGeometry x="132" y="10" width="25" height="50" as="geometry" />
        </mxCell>
        <mxCell id="alAOk1aA2B2bPVMMPNH8-68" value="" style="rounded=0;whiteSpace=wrap;html=1;strokeWidth=3;rotation=-90;" vertex="1" parent="alAOk1aA2B2bPVMMPNH8-67">
          <mxGeometry x="-12.5" y="12.5" width="50" height="25" as="geometry" />
        </mxCell>
        <mxCell id="alAOk1aA2B2bPVMMPNH8-69" value="" style="ellipse;whiteSpace=wrap;html=1;aspect=fixed;strokeWidth=3;" vertex="1" parent="alAOk1aA2B2bPVMMPNH8-67">
          <mxGeometry x="5" y="6.5" width="15" height="15" as="geometry" />
        </mxCell>
        <mxCell id="alAOk1aA2B2bPVMMPNH8-70" value="" style="ellipse;whiteSpace=wrap;html=1;aspect=fixed;strokeWidth=3;" vertex="1" parent="alAOk1aA2B2bPVMMPNH8-67">
          <mxGeometry x="5" y="27.5" width="15" height="15" as="geometry" />
        </mxCell>
        <mxCell id="alAOk1aA2B2bPVMMPNH8-71" value="" style="group" vertex="1" connectable="0" parent="alAOk1aA2B2bPVMMPNH8-49">
          <mxGeometry x="162" y="10" width="25" height="50" as="geometry" />
        </mxCell>
        <mxCell id="alAOk1aA2B2bPVMMPNH8-72" value="" style="rounded=0;whiteSpace=wrap;html=1;strokeWidth=3;rotation=-90;" vertex="1" parent="alAOk1aA2B2bPVMMPNH8-71">
          <mxGeometry x="-12.5" y="12.5" width="50" height="25" as="geometry" />
        </mxCell>
        <mxCell id="alAOk1aA2B2bPVMMPNH8-73" value="" style="ellipse;whiteSpace=wrap;html=1;aspect=fixed;strokeWidth=3;" vertex="1" parent="alAOk1aA2B2bPVMMPNH8-71">
          <mxGeometry x="5" y="6.5" width="15" height="15" as="geometry" />
        </mxCell>
        <mxCell id="alAOk1aA2B2bPVMMPNH8-74" value="" style="ellipse;whiteSpace=wrap;html=1;aspect=fixed;strokeWidth=3;" vertex="1" parent="alAOk1aA2B2bPVMMPNH8-71">
          <mxGeometry x="5" y="27.5" width="15" height="15" as="geometry" />
        </mxCell>
        <mxCell id="alAOk1aA2B2bPVMMPNH8-75" value="" style="group" vertex="1" connectable="0" parent="1">
          <mxGeometry x="508" y="340" width="195" height="70" as="geometry" />
        </mxCell>
        <mxCell id="alAOk1aA2B2bPVMMPNH8-76" value="" style="rounded=0;whiteSpace=wrap;html=1;strokeWidth=3;" vertex="1" parent="alAOk1aA2B2bPVMMPNH8-75">
          <mxGeometry width="195" height="70" as="geometry" />
        </mxCell>
        <mxCell id="alAOk1aA2B2bPVMMPNH8-77" value="" style="group" vertex="1" connectable="0" parent="alAOk1aA2B2bPVMMPNH8-75">
          <mxGeometry x="6.5" y="10" width="25" height="50" as="geometry" />
        </mxCell>
        <mxCell id="alAOk1aA2B2bPVMMPNH8-78" value="" style="rounded=0;whiteSpace=wrap;html=1;strokeWidth=3;rotation=-90;" vertex="1" parent="alAOk1aA2B2bPVMMPNH8-77">
          <mxGeometry x="-12.5" y="12.5" width="50" height="25" as="geometry" />
        </mxCell>
        <mxCell id="alAOk1aA2B2bPVMMPNH8-79" value="" style="ellipse;whiteSpace=wrap;html=1;aspect=fixed;strokeWidth=3;" vertex="1" parent="alAOk1aA2B2bPVMMPNH8-77">
          <mxGeometry x="5" y="6.5" width="15" height="15" as="geometry" />
        </mxCell>
        <mxCell id="alAOk1aA2B2bPVMMPNH8-80" value="" style="ellipse;whiteSpace=wrap;html=1;aspect=fixed;strokeWidth=3;" vertex="1" parent="alAOk1aA2B2bPVMMPNH8-77">
          <mxGeometry x="5" y="27.5" width="15" height="15" as="geometry" />
        </mxCell>
        <mxCell id="alAOk1aA2B2bPVMMPNH8-81" value="" style="group" vertex="1" connectable="0" parent="alAOk1aA2B2bPVMMPNH8-75">
          <mxGeometry x="40" y="10" width="25" height="50" as="geometry" />
        </mxCell>
        <mxCell id="alAOk1aA2B2bPVMMPNH8-82" value="" style="rounded=0;whiteSpace=wrap;html=1;strokeWidth=3;rotation=-90;" vertex="1" parent="alAOk1aA2B2bPVMMPNH8-81">
          <mxGeometry x="-12.5" y="12.5" width="50" height="25" as="geometry" />
        </mxCell>
        <mxCell id="alAOk1aA2B2bPVMMPNH8-83" value="" style="ellipse;whiteSpace=wrap;html=1;aspect=fixed;strokeWidth=3;" vertex="1" parent="alAOk1aA2B2bPVMMPNH8-81">
          <mxGeometry x="5" y="6.5" width="15" height="15" as="geometry" />
        </mxCell>
        <mxCell id="alAOk1aA2B2bPVMMPNH8-84" value="" style="ellipse;whiteSpace=wrap;html=1;aspect=fixed;strokeWidth=3;" vertex="1" parent="alAOk1aA2B2bPVMMPNH8-81">
          <mxGeometry x="5" y="27.5" width="15" height="15" as="geometry" />
        </mxCell>
        <mxCell id="alAOk1aA2B2bPVMMPNH8-85" value="" style="group" vertex="1" connectable="0" parent="alAOk1aA2B2bPVMMPNH8-75">
          <mxGeometry x="72" y="10" width="25" height="50" as="geometry" />
        </mxCell>
        <mxCell id="alAOk1aA2B2bPVMMPNH8-86" value="" style="rounded=0;whiteSpace=wrap;html=1;strokeWidth=3;rotation=-90;" vertex="1" parent="alAOk1aA2B2bPVMMPNH8-85">
          <mxGeometry x="-12.5" y="12.5" width="50" height="25" as="geometry" />
        </mxCell>
        <mxCell id="alAOk1aA2B2bPVMMPNH8-87" value="" style="ellipse;whiteSpace=wrap;html=1;aspect=fixed;strokeWidth=3;" vertex="1" parent="alAOk1aA2B2bPVMMPNH8-85">
          <mxGeometry x="5" y="6.5" width="15" height="15" as="geometry" />
        </mxCell>
        <mxCell id="alAOk1aA2B2bPVMMPNH8-88" value="" style="ellipse;whiteSpace=wrap;html=1;aspect=fixed;strokeWidth=3;" vertex="1" parent="alAOk1aA2B2bPVMMPNH8-85">
          <mxGeometry x="5" y="27.5" width="15" height="15" as="geometry" />
        </mxCell>
        <mxCell id="alAOk1aA2B2bPVMMPNH8-89" value="" style="group" vertex="1" connectable="0" parent="alAOk1aA2B2bPVMMPNH8-75">
          <mxGeometry x="102" y="10" width="25" height="50" as="geometry" />
        </mxCell>
        <mxCell id="alAOk1aA2B2bPVMMPNH8-90" value="" style="rounded=0;whiteSpace=wrap;html=1;strokeWidth=3;rotation=-90;" vertex="1" parent="alAOk1aA2B2bPVMMPNH8-89">
          <mxGeometry x="-12.5" y="12.5" width="50" height="25" as="geometry" />
        </mxCell>
        <mxCell id="alAOk1aA2B2bPVMMPNH8-91" value="" style="ellipse;whiteSpace=wrap;html=1;aspect=fixed;strokeWidth=3;" vertex="1" parent="alAOk1aA2B2bPVMMPNH8-89">
          <mxGeometry x="5" y="6.5" width="15" height="15" as="geometry" />
        </mxCell>
        <mxCell id="alAOk1aA2B2bPVMMPNH8-92" value="" style="ellipse;whiteSpace=wrap;html=1;aspect=fixed;strokeWidth=3;" vertex="1" parent="alAOk1aA2B2bPVMMPNH8-89">
          <mxGeometry x="5" y="27.5" width="15" height="15" as="geometry" />
        </mxCell>
        <mxCell id="alAOk1aA2B2bPVMMPNH8-93" value="" style="group" vertex="1" connectable="0" parent="alAOk1aA2B2bPVMMPNH8-75">
          <mxGeometry x="132" y="10" width="25" height="50" as="geometry" />
        </mxCell>
        <mxCell id="alAOk1aA2B2bPVMMPNH8-94" value="" style="rounded=0;whiteSpace=wrap;html=1;strokeWidth=3;rotation=-90;" vertex="1" parent="alAOk1aA2B2bPVMMPNH8-93">
          <mxGeometry x="-12.5" y="12.5" width="50" height="25" as="geometry" />
        </mxCell>
        <mxCell id="alAOk1aA2B2bPVMMPNH8-95" value="" style="ellipse;whiteSpace=wrap;html=1;aspect=fixed;strokeWidth=3;" vertex="1" parent="alAOk1aA2B2bPVMMPNH8-93">
          <mxGeometry x="5" y="6.5" width="15" height="15" as="geometry" />
        </mxCell>
        <mxCell id="alAOk1aA2B2bPVMMPNH8-96" value="" style="ellipse;whiteSpace=wrap;html=1;aspect=fixed;strokeWidth=3;" vertex="1" parent="alAOk1aA2B2bPVMMPNH8-93">
          <mxGeometry x="5" y="27.5" width="15" height="15" as="geometry" />
        </mxCell>
        <mxCell id="alAOk1aA2B2bPVMMPNH8-97" value="" style="group" vertex="1" connectable="0" parent="alAOk1aA2B2bPVMMPNH8-75">
          <mxGeometry x="162" y="10" width="25" height="50" as="geometry" />
        </mxCell>
        <mxCell id="alAOk1aA2B2bPVMMPNH8-98" value="" style="rounded=0;whiteSpace=wrap;html=1;strokeWidth=3;rotation=-90;" vertex="1" parent="alAOk1aA2B2bPVMMPNH8-97">
          <mxGeometry x="-12.5" y="12.5" width="50" height="25" as="geometry" />
        </mxCell>
        <mxCell id="alAOk1aA2B2bPVMMPNH8-99" value="" style="ellipse;whiteSpace=wrap;html=1;aspect=fixed;strokeWidth=3;" vertex="1" parent="alAOk1aA2B2bPVMMPNH8-97">
          <mxGeometry x="5" y="6.5" width="15" height="15" as="geometry" />
        </mxCell>
        <mxCell id="alAOk1aA2B2bPVMMPNH8-100" value="" style="ellipse;whiteSpace=wrap;html=1;aspect=fixed;strokeWidth=3;" vertex="1" parent="alAOk1aA2B2bPVMMPNH8-97">
          <mxGeometry x="5" y="27.5" width="15" height="15" as="geometry" />
        </mxCell>
        <mxCell id="alAOk1aA2B2bPVMMPNH8-107" value="" style="group" vertex="1" connectable="0" parent="1">
          <mxGeometry x="203" y="285" width="43" height="58" as="geometry" />
        </mxCell>
        <mxCell id="alAOk1aA2B2bPVMMPNH8-101" value="" style="pointerEvents=1;shadow=0;dashed=0;html=1;strokeColor=none;labelPosition=center;verticalLabelPosition=bottom;verticalAlign=top;outlineConnect=0;align=center;shape=mxgraph.office.servers.server_generic;fillColor=#DA4026;" vertex="1" parent="alAOk1aA2B2bPVMMPNH8-107">
          <mxGeometry x="9" y="6" width="27" height="52" as="geometry" />
        </mxCell>
        <mxCell id="alAOk1aA2B2bPVMMPNH8-102" value="" style="ellipse;whiteSpace=wrap;html=1;aspect=fixed;strokeWidth=1;" vertex="1" parent="alAOk1aA2B2bPVMMPNH8-107">
          <mxGeometry x="9" y="1" width="8" height="8" as="geometry" />
        </mxCell>
        <mxCell id="alAOk1aA2B2bPVMMPNH8-104" value="" style="ellipse;whiteSpace=wrap;html=1;aspect=fixed;strokeWidth=1;" vertex="1" parent="alAOk1aA2B2bPVMMPNH8-107">
          <mxGeometry x="28" y="1" width="8" height="8" as="geometry" />
        </mxCell>
        <mxCell id="alAOk1aA2B2bPVMMPNH8-105" value="A" style="text;html=1;strokeColor=none;fillColor=none;align=center;verticalAlign=middle;whiteSpace=wrap;rounded=0;fontSize=6;" vertex="1" parent="alAOk1aA2B2bPVMMPNH8-107">
          <mxGeometry width="9" height="10" as="geometry" />
        </mxCell>
        <mxCell id="alAOk1aA2B2bPVMMPNH8-106" value="B" style="text;html=1;strokeColor=none;fillColor=none;align=center;verticalAlign=middle;whiteSpace=wrap;rounded=0;fontSize=6;" vertex="1" parent="alAOk1aA2B2bPVMMPNH8-107">
          <mxGeometry x="36" y="1" width="7" height="8" as="geometry" />
        </mxCell>
        <mxCell id="alAOk1aA2B2bPVMMPNH8-108" value="" style="group" vertex="1" connectable="0" parent="1">
          <mxGeometry x="228" y="153" width="43" height="58" as="geometry" />
        </mxCell>
        <mxCell id="alAOk1aA2B2bPVMMPNH8-109" value="" style="pointerEvents=1;shadow=0;dashed=0;html=1;strokeColor=none;labelPosition=center;verticalLabelPosition=bottom;verticalAlign=top;outlineConnect=0;align=center;shape=mxgraph.office.servers.server_generic;fillColor=#DA4026;" vertex="1" parent="alAOk1aA2B2bPVMMPNH8-108">
          <mxGeometry x="9" y="6" width="27" height="52" as="geometry" />
        </mxCell>
        <mxCell id="alAOk1aA2B2bPVMMPNH8-110" value="" style="ellipse;whiteSpace=wrap;html=1;aspect=fixed;strokeWidth=1;" vertex="1" parent="alAOk1aA2B2bPVMMPNH8-108">
          <mxGeometry x="9" y="1" width="8" height="8" as="geometry" />
        </mxCell>
        <mxCell id="alAOk1aA2B2bPVMMPNH8-111" value="" style="ellipse;whiteSpace=wrap;html=1;aspect=fixed;strokeWidth=1;" vertex="1" parent="alAOk1aA2B2bPVMMPNH8-108">
          <mxGeometry x="28" y="1" width="8" height="8" as="geometry" />
        </mxCell>
        <mxCell id="alAOk1aA2B2bPVMMPNH8-112" value="A" style="text;html=1;strokeColor=none;fillColor=none;align=center;verticalAlign=middle;whiteSpace=wrap;rounded=0;fontSize=6;" vertex="1" parent="alAOk1aA2B2bPVMMPNH8-108">
          <mxGeometry width="9" height="10" as="geometry" />
        </mxCell>
        <mxCell id="alAOk1aA2B2bPVMMPNH8-113" value="B" style="text;html=1;strokeColor=none;fillColor=none;align=center;verticalAlign=middle;whiteSpace=wrap;rounded=0;fontSize=6;" vertex="1" parent="alAOk1aA2B2bPVMMPNH8-108">
          <mxGeometry x="36" y="1" width="7" height="8" as="geometry" />
        </mxCell>
        <mxCell id="alAOk1aA2B2bPVMMPNH8-114" value="" style="group" vertex="1" connectable="0" parent="1">
          <mxGeometry x="276" y="580" width="43" height="58" as="geometry" />
        </mxCell>
        <mxCell id="alAOk1aA2B2bPVMMPNH8-115" value="" style="pointerEvents=1;shadow=0;dashed=0;html=1;strokeColor=none;labelPosition=center;verticalLabelPosition=bottom;verticalAlign=top;outlineConnect=0;align=center;shape=mxgraph.office.servers.server_generic;fillColor=#DA4026;" vertex="1" parent="alAOk1aA2B2bPVMMPNH8-114">
          <mxGeometry x="9" y="6" width="27" height="52" as="geometry" />
        </mxCell>
        <mxCell id="alAOk1aA2B2bPVMMPNH8-116" value="" style="ellipse;whiteSpace=wrap;html=1;aspect=fixed;strokeWidth=1;" vertex="1" parent="alAOk1aA2B2bPVMMPNH8-114">
          <mxGeometry x="9" y="1" width="8" height="8" as="geometry" />
        </mxCell>
        <mxCell id="alAOk1aA2B2bPVMMPNH8-117" value="" style="ellipse;whiteSpace=wrap;html=1;aspect=fixed;strokeWidth=1;" vertex="1" parent="alAOk1aA2B2bPVMMPNH8-114">
          <mxGeometry x="28" y="1" width="8" height="8" as="geometry" />
        </mxCell>
        <mxCell id="alAOk1aA2B2bPVMMPNH8-118" value="A" style="text;html=1;strokeColor=none;fillColor=none;align=center;verticalAlign=middle;whiteSpace=wrap;rounded=0;fontSize=6;" vertex="1" parent="alAOk1aA2B2bPVMMPNH8-114">
          <mxGeometry width="9" height="10" as="geometry" />
        </mxCell>
        <mxCell id="alAOk1aA2B2bPVMMPNH8-119" value="B" style="text;html=1;strokeColor=none;fillColor=none;align=center;verticalAlign=middle;whiteSpace=wrap;rounded=0;fontSize=6;" vertex="1" parent="alAOk1aA2B2bPVMMPNH8-114">
          <mxGeometry x="36" y="1" width="7" height="8" as="geometry" />
        </mxCell>
        <mxCell id="alAOk1aA2B2bPVMMPNH8-120" value="" style="group" vertex="1" connectable="0" parent="1">
          <mxGeometry x="341" y="673" width="43" height="58" as="geometry" />
        </mxCell>
        <mxCell id="alAOk1aA2B2bPVMMPNH8-121" value="" style="pointerEvents=1;shadow=0;dashed=0;html=1;strokeColor=none;labelPosition=center;verticalLabelPosition=bottom;verticalAlign=top;outlineConnect=0;align=center;shape=mxgraph.office.servers.server_generic;fillColor=#DA4026;" vertex="1" parent="alAOk1aA2B2bPVMMPNH8-120">
          <mxGeometry x="9" y="6" width="27" height="52" as="geometry" />
        </mxCell>
        <mxCell id="alAOk1aA2B2bPVMMPNH8-122" value="" style="ellipse;whiteSpace=wrap;html=1;aspect=fixed;strokeWidth=1;" vertex="1" parent="alAOk1aA2B2bPVMMPNH8-120">
          <mxGeometry x="9" y="1" width="8" height="8" as="geometry" />
        </mxCell>
        <mxCell id="alAOk1aA2B2bPVMMPNH8-123" value="" style="ellipse;whiteSpace=wrap;html=1;aspect=fixed;strokeWidth=1;" vertex="1" parent="alAOk1aA2B2bPVMMPNH8-120">
          <mxGeometry x="28" y="1" width="8" height="8" as="geometry" />
        </mxCell>
        <mxCell id="alAOk1aA2B2bPVMMPNH8-124" value="A" style="text;html=1;strokeColor=none;fillColor=none;align=center;verticalAlign=middle;whiteSpace=wrap;rounded=0;fontSize=6;" vertex="1" parent="alAOk1aA2B2bPVMMPNH8-120">
          <mxGeometry width="9" height="10" as="geometry" />
        </mxCell>
        <mxCell id="alAOk1aA2B2bPVMMPNH8-125" value="B" style="text;html=1;strokeColor=none;fillColor=none;align=center;verticalAlign=middle;whiteSpace=wrap;rounded=0;fontSize=6;" vertex="1" parent="alAOk1aA2B2bPVMMPNH8-120">
          <mxGeometry x="36" y="1" width="7" height="8" as="geometry" />
        </mxCell>
        <mxCell id="alAOk1aA2B2bPVMMPNH8-126" value="" style="group" vertex="1" connectable="0" parent="1">
          <mxGeometry x="471" y="701" width="43" height="58" as="geometry" />
        </mxCell>
        <mxCell id="alAOk1aA2B2bPVMMPNH8-127" value="" style="pointerEvents=1;shadow=0;dashed=0;html=1;strokeColor=none;labelPosition=center;verticalLabelPosition=bottom;verticalAlign=top;outlineConnect=0;align=center;shape=mxgraph.office.servers.server_generic;fillColor=#DA4026;" vertex="1" parent="alAOk1aA2B2bPVMMPNH8-126">
          <mxGeometry x="9" y="6" width="27" height="52" as="geometry" />
        </mxCell>
        <mxCell id="alAOk1aA2B2bPVMMPNH8-128" value="" style="ellipse;whiteSpace=wrap;html=1;aspect=fixed;strokeWidth=1;" vertex="1" parent="alAOk1aA2B2bPVMMPNH8-126">
          <mxGeometry x="9" y="1" width="8" height="8" as="geometry" />
        </mxCell>
        <mxCell id="alAOk1aA2B2bPVMMPNH8-129" value="" style="ellipse;whiteSpace=wrap;html=1;aspect=fixed;strokeWidth=1;" vertex="1" parent="alAOk1aA2B2bPVMMPNH8-126">
          <mxGeometry x="28" y="1" width="8" height="8" as="geometry" />
        </mxCell>
        <mxCell id="alAOk1aA2B2bPVMMPNH8-130" value="A" style="text;html=1;strokeColor=none;fillColor=none;align=center;verticalAlign=middle;whiteSpace=wrap;rounded=0;fontSize=6;" vertex="1" parent="alAOk1aA2B2bPVMMPNH8-126">
          <mxGeometry width="9" height="10" as="geometry" />
        </mxCell>
        <mxCell id="alAOk1aA2B2bPVMMPNH8-131" value="B" style="text;html=1;strokeColor=none;fillColor=none;align=center;verticalAlign=middle;whiteSpace=wrap;rounded=0;fontSize=6;" vertex="1" parent="alAOk1aA2B2bPVMMPNH8-126">
          <mxGeometry x="36" y="1" width="7" height="8" as="geometry" />
        </mxCell>
        <mxCell id="alAOk1aA2B2bPVMMPNH8-132" value="" style="group" vertex="1" connectable="0" parent="1">
          <mxGeometry x="614" y="712" width="43" height="58" as="geometry" />
        </mxCell>
        <mxCell id="alAOk1aA2B2bPVMMPNH8-133" value="" style="pointerEvents=1;shadow=0;dashed=0;html=1;strokeColor=none;labelPosition=center;verticalLabelPosition=bottom;verticalAlign=top;outlineConnect=0;align=center;shape=mxgraph.office.servers.server_generic;fillColor=#DA4026;" vertex="1" parent="alAOk1aA2B2bPVMMPNH8-132">
          <mxGeometry x="9" y="6" width="27" height="52" as="geometry" />
        </mxCell>
        <mxCell id="alAOk1aA2B2bPVMMPNH8-134" value="" style="ellipse;whiteSpace=wrap;html=1;aspect=fixed;strokeWidth=1;" vertex="1" parent="alAOk1aA2B2bPVMMPNH8-132">
          <mxGeometry x="9" y="1" width="8" height="8" as="geometry" />
        </mxCell>
        <mxCell id="alAOk1aA2B2bPVMMPNH8-135" value="" style="ellipse;whiteSpace=wrap;html=1;aspect=fixed;strokeWidth=1;" vertex="1" parent="alAOk1aA2B2bPVMMPNH8-132">
          <mxGeometry x="28" y="1" width="8" height="8" as="geometry" />
        </mxCell>
        <mxCell id="alAOk1aA2B2bPVMMPNH8-136" value="A" style="text;html=1;strokeColor=none;fillColor=none;align=center;verticalAlign=middle;whiteSpace=wrap;rounded=0;fontSize=6;" vertex="1" parent="alAOk1aA2B2bPVMMPNH8-132">
          <mxGeometry width="9" height="10" as="geometry" />
        </mxCell>
        <mxCell id="alAOk1aA2B2bPVMMPNH8-137" value="B" style="text;html=1;strokeColor=none;fillColor=none;align=center;verticalAlign=middle;whiteSpace=wrap;rounded=0;fontSize=6;" vertex="1" parent="alAOk1aA2B2bPVMMPNH8-132">
          <mxGeometry x="36" y="1" width="7" height="8" as="geometry" />
        </mxCell>
        <mxCell id="alAOk1aA2B2bPVMMPNH8-139" value="&lt;div&gt;Node X&lt;/div&gt;&lt;div&gt;Build Y&lt;br&gt;&lt;/div&gt;" style="text;html=1;strokeColor=none;fillColor=none;align=center;verticalAlign=middle;whiteSpace=wrap;rounded=0;fontSize=6;" vertex="1" parent="1">
          <mxGeometry x="240" y="318" width="40" height="20" as="geometry" />
        </mxCell>
        <mxCell id="alAOk1aA2B2bPVMMPNH8-141" value="&lt;div&gt;Node X&lt;/div&gt;&lt;div&gt;Build Y&lt;br&gt;&lt;/div&gt;" style="text;html=1;strokeColor=none;fillColor=none;align=center;verticalAlign=middle;whiteSpace=wrap;rounded=0;fontSize=6;" vertex="1" parent="1">
          <mxGeometry x="271" y="147" width="40" height="20" as="geometry" />
        </mxCell>
        <mxCell id="alAOk1aA2B2bPVMMPNH8-142" value="&lt;div&gt;Node X&lt;/div&gt;&lt;div&gt;Build Y&lt;br&gt;&lt;/div&gt;" style="text;html=1;strokeColor=none;fillColor=none;align=center;verticalAlign=middle;whiteSpace=wrap;rounded=0;fontSize=6;" vertex="1" parent="1">
          <mxGeometry x="311" y="603" width="40" height="20" as="geometry" />
        </mxCell>
        <mxCell id="alAOk1aA2B2bPVMMPNH8-147" style="edgeStyle=orthogonalEdgeStyle;rounded=0;orthogonalLoop=1;jettySize=auto;html=1;entryX=0;entryY=0.5;entryDx=0;entryDy=0;fontSize=6;curved=1;endArrow=none;endFill=0;" edge="1" parent="1" source="alAOk1aA2B2bPVMMPNH8-106" target="alAOk1aA2B2bPVMMPNH8-80">
          <mxGeometry relative="1" as="geometry" />
        </mxCell>
        <mxCell id="alAOk1aA2B2bPVMMPNH8-148" style="edgeStyle=orthogonalEdgeStyle;curved=1;rounded=0;orthogonalLoop=1;jettySize=auto;html=1;exitX=0.5;exitY=0;exitDx=0;exitDy=0;endArrow=none;endFill=0;fontSize=6;" edge="1" parent="1" source="alAOk1aA2B2bPVMMPNH8-105" target="alAOk1aA2B2bPVMMPNH8-79">
          <mxGeometry relative="1" as="geometry">
            <Array as="points">
              <mxPoint x="207" y="265" />
              <mxPoint x="396" y="265" />
              <mxPoint x="396" y="364" />
            </Array>
          </mxGeometry>
        </mxCell>
        <mxCell id="alAOk1aA2B2bPVMMPNH8-149" style="edgeStyle=orthogonalEdgeStyle;curved=1;rounded=0;orthogonalLoop=1;jettySize=auto;html=1;exitX=1;exitY=0.25;exitDx=0;exitDy=0;entryX=0.5;entryY=1;entryDx=0;entryDy=0;endArrow=none;endFill=0;fontSize=6;" edge="1" parent="1" source="alAOk1aA2B2bPVMMPNH8-118" target="alAOk1aA2B2bPVMMPNH8-74">
          <mxGeometry relative="1" as="geometry">
            <Array as="points">
              <mxPoint x="285" y="503" />
              <mxPoint x="778" y="503" />
              <mxPoint x="778" y="311" />
            </Array>
          </mxGeometry>
        </mxCell>
        <mxCell id="alAOk1aA2B2bPVMMPNH8-150" style="edgeStyle=orthogonalEdgeStyle;curved=1;rounded=0;orthogonalLoop=1;jettySize=auto;html=1;exitX=0.5;exitY=0;exitDx=0;exitDy=0;endArrow=none;endFill=0;fontSize=6;" edge="1" parent="1" source="alAOk1aA2B2bPVMMPNH8-117" target="alAOk1aA2B2bPVMMPNH8-73">
          <mxGeometry relative="1" as="geometry">
            <Array as="points">
              <mxPoint x="308" y="539" />
              <mxPoint x="831" y="539" />
              <mxPoint x="831" y="282" />
            </Array>
          </mxGeometry>
        </mxCell>
        <mxCell id="alAOk1aA2B2bPVMMPNH8-151" style="edgeStyle=orthogonalEdgeStyle;curved=1;rounded=0;orthogonalLoop=1;jettySize=auto;html=1;endArrow=none;endFill=0;fontSize=6;exitX=1;exitY=0.5;exitDx=0;exitDy=0;" edge="1" parent="1" source="alAOk1aA2B2bPVMMPNH8-112" target="alAOk1aA2B2bPVMMPNH8-26">
          <mxGeometry relative="1" as="geometry">
            <mxPoint x="242" y="131" as="sourcePoint" />
            <Array as="points">
              <mxPoint x="237" y="115" />
              <mxPoint x="593" y="115" />
            </Array>
          </mxGeometry>
        </mxCell>
        <mxCell id="alAOk1aA2B2bPVMMPNH8-152" style="edgeStyle=orthogonalEdgeStyle;curved=1;rounded=0;orthogonalLoop=1;jettySize=auto;html=1;exitX=0.5;exitY=0;exitDx=0;exitDy=0;entryX=0;entryY=0.5;entryDx=0;entryDy=0;endArrow=none;endFill=0;fontSize=6;" edge="1" parent="1" source="alAOk1aA2B2bPVMMPNH8-111" target="alAOk1aA2B2bPVMMPNH8-27">
          <mxGeometry relative="1" as="geometry">
            <Array as="points">
              <mxPoint x="260" y="134" />
              <mxPoint x="479" y="134" />
              <mxPoint x="479" y="246" />
              <mxPoint x="585" y="246" />
            </Array>
          </mxGeometry>
        </mxCell>
        <mxCell id="alAOk1aA2B2bPVMMPNH8-162" value="" style="group" vertex="1" connectable="0" parent="1">
          <mxGeometry x="834" y="187" width="97" height="67" as="geometry" />
        </mxCell>
        <mxCell id="alAOk1aA2B2bPVMMPNH8-153" value="" style="pointerEvents=1;shadow=0;dashed=0;html=1;strokeColor=none;fillColor=#505050;labelPosition=center;verticalLabelPosition=bottom;verticalAlign=top;outlineConnect=0;align=center;shape=mxgraph.office.servers.monitoring_sql_reporting_services;fontSize=6;" vertex="1" parent="alAOk1aA2B2bPVMMPNH8-162">
          <mxGeometry x="3" y="8" width="50" height="59" as="geometry" />
        </mxCell>
        <mxCell id="alAOk1aA2B2bPVMMPNH8-154" value="A" style="text;html=1;strokeColor=none;fillColor=none;align=center;verticalAlign=middle;whiteSpace=wrap;rounded=0;fontSize=6;" vertex="1" parent="alAOk1aA2B2bPVMMPNH8-162">
          <mxGeometry y="4" width="9" height="10" as="geometry" />
        </mxCell>
        <mxCell id="alAOk1aA2B2bPVMMPNH8-155" value="" style="ellipse;whiteSpace=wrap;html=1;aspect=fixed;strokeWidth=1;" vertex="1" parent="alAOk1aA2B2bPVMMPNH8-162">
          <mxGeometry x="41" width="8" height="8" as="geometry" />
        </mxCell>
        <mxCell id="alAOk1aA2B2bPVMMPNH8-159" value="B" style="text;html=1;strokeColor=none;fillColor=none;align=center;verticalAlign=middle;whiteSpace=wrap;rounded=0;fontSize=6;" vertex="1" parent="alAOk1aA2B2bPVMMPNH8-162">
          <mxGeometry x="49" width="7" height="8" as="geometry" />
        </mxCell>
        <mxCell id="alAOk1aA2B2bPVMMPNH8-160" value="" style="ellipse;whiteSpace=wrap;html=1;aspect=fixed;strokeWidth=1;" vertex="1" parent="alAOk1aA2B2bPVMMPNH8-162">
          <mxGeometry x="9" y="4" width="8" height="8" as="geometry" />
        </mxCell>
        <mxCell id="alAOk1aA2B2bPVMMPNH8-161" value="&lt;div&gt;FireAlarm&lt;/div&gt;&lt;div&gt;Station&lt;br&gt;&lt;/div&gt;" style="text;html=1;resizable=0;autosize=1;align=center;verticalAlign=middle;points=[];fillColor=none;strokeColor=none;rounded=0;fontSize=6;" vertex="1" parent="alAOk1aA2B2bPVMMPNH8-162">
          <mxGeometry x="53" y="26" width="44" height="23" as="geometry" />
        </mxCell>
        <mxCell id="alAOk1aA2B2bPVMMPNH8-163" style="edgeStyle=orthogonalEdgeStyle;curved=1;rounded=0;orthogonalLoop=1;jettySize=auto;html=1;endArrow=none;endFill=0;fontSize=6;" edge="1" parent="1" source="alAOk1aA2B2bPVMMPNH8-160" target="alAOk1aA2B2bPVMMPNH8-41">
          <mxGeometry relative="1" as="geometry">
            <mxPoint x="725.2815533980582" y="194.99999999999997" as="targetPoint" />
            <Array as="points">
              <mxPoint x="757" y="195" />
              <mxPoint x="757" y="245" />
              <mxPoint x="660" y="245" />
            </Array>
          </mxGeometry>
        </mxCell>
        <mxCell id="alAOk1aA2B2bPVMMPNH8-164" style="edgeStyle=orthogonalEdgeStyle;curved=1;rounded=0;orthogonalLoop=1;jettySize=auto;html=1;entryX=0.5;entryY=0;entryDx=0;entryDy=0;endArrow=none;endFill=0;fontSize=6;" edge="1" parent="1" source="alAOk1aA2B2bPVMMPNH8-155" target="alAOk1aA2B2bPVMMPNH8-40">
          <mxGeometry relative="1" as="geometry">
            <Array as="points">
              <mxPoint x="875" y="131" />
              <mxPoint x="652" y="131" />
            </Array>
          </mxGeometry>
        </mxCell>
        <mxCell id="alAOk1aA2B2bPVMMPNH8-171" style="edgeStyle=orthogonalEdgeStyle;curved=1;rounded=0;orthogonalLoop=1;jettySize=auto;html=1;exitX=0.5;exitY=1;exitDx=0;exitDy=0;endArrow=none;endFill=0;strokeWidth=4;fontSize=6;fillColor=#ffe6cc;strokeColor=#d79b00;" edge="1" parent="1" source="alAOk1aA2B2bPVMMPNH8-27" target="alAOk1aA2B2bPVMMPNH8-79">
          <mxGeometry relative="1" as="geometry">
            <Array as="points">
              <mxPoint x="593" y="248" />
              <mxPoint x="472" y="248" />
              <mxPoint x="472" y="364" />
            </Array>
          </mxGeometry>
        </mxCell>
        <mxCell id="alAOk1aA2B2bPVMMPNH8-173" style="edgeStyle=orthogonalEdgeStyle;curved=1;rounded=0;orthogonalLoop=1;jettySize=auto;html=1;exitX=0;exitY=1;exitDx=0;exitDy=0;endArrow=none;endFill=0;strokeWidth=4;fontSize=6;fillColor=#ffe6cc;strokeColor=#d79b00;" edge="1" parent="1" source="alAOk1aA2B2bPVMMPNH8-80" target="alAOk1aA2B2bPVMMPNH8-74">
          <mxGeometry relative="1" as="geometry">
            <Array as="points">
              <mxPoint x="522" y="436" />
              <mxPoint x="727" y="436" />
              <mxPoint x="727" y="303" />
            </Array>
          </mxGeometry>
        </mxCell>
        <mxCell id="alAOk1aA2B2bPVMMPNH8-174" style="edgeStyle=orthogonalEdgeStyle;curved=1;rounded=0;orthogonalLoop=1;jettySize=auto;html=1;exitX=0.5;exitY=1;exitDx=0;exitDy=0;entryX=1;entryY=0.5;entryDx=0;entryDy=0;endArrow=none;endFill=0;strokeWidth=4;fontSize=6;fillColor=#ffe6cc;strokeColor=#d79b00;" edge="1" parent="1" source="alAOk1aA2B2bPVMMPNH8-41" target="alAOk1aA2B2bPVMMPNH8-73">
          <mxGeometry relative="1" as="geometry" />
        </mxCell>
        <mxCell id="alAOk1aA2B2bPVMMPNH8-175" value="FOP1 - PC02-&amp;gt;PC03" style="text;html=1;resizable=0;autosize=1;align=center;verticalAlign=middle;points=[];fillColor=none;strokeColor=none;rounded=0;fontSize=6;" vertex="1" parent="1">
          <mxGeometry x="425" y="198.5" width="83" height="13" as="geometry" />
        </mxCell>
        <mxCell id="alAOk1aA2B2bPVMMPNH8-176" value="FOP2- PC06-&amp;gt;PC08" style="text;html=1;resizable=0;autosize=1;align=center;verticalAlign=middle;points=[];fillColor=none;strokeColor=none;rounded=0;fontSize=6;" vertex="1" parent="1">
          <mxGeometry x="422" y="290" width="81" height="13" as="geometry" />
        </mxCell>
        <mxCell id="alAOk1aA2B2bPVMMPNH8-177" value="FOP2- PC11-&amp;gt;PC15" style="text;html=1;resizable=0;autosize=1;align=center;verticalAlign=middle;points=[];fillColor=none;strokeColor=none;rounded=0;fontSize=6;" vertex="1" parent="1">
          <mxGeometry x="428" y="368.5" width="80" height="13" as="geometry" />
        </mxCell>
      </root>
    </mxGraphModel>
  </diagram>
</mxfile>
